<?xml version="1.0" standalone="no"?>
<!DOCTYPE svg PUBLIC "-//W3C//DTD SVG 20010904//EN"
 "http://www.w3.org/TR/2001/REC-SVG-20010904/DTD/svg10.dtd">
<svg version="1.0" xmlns="http://www.w3.org/2000/svg"
 width="1024.000000pt" height="1024.000000pt" viewBox="0 0 1024.000000 1024.000000"
 preserveAspectRatio="xMidYMid meet">

<g transform="translate(0.000000,1024.000000) scale(0.100000,-0.100000)"
fill="#000000" stroke="none">
<path d="M0 5120 l0 -5120 5120 0 5120 0 0 5120 0 5120 -5120 0 -5120 0 0
-5120z m4050 1836 c626 -77 1102 -222 1430 -437 54 -36 134 -102 186 -153 210
-210 239 -427 88 -649 -193 -282 -756 -540 -1414 -646 -306 -49 -411 -56 -880
-56 -481 1 -625 11 -945 70 -827 152 -1382 475 -1446 843 -32 183 88 393 317
554 370 259 915 421 1629 483 212 19 852 13 1035 -9z m2636 -656 c7 -30 13
-55 14 -55 0 0 -71 2 -158 4 -138 3 -161 1 -175 -14 -14 -14 -17 -40 -17 -174
0 -207 -13 -194 199 -190 181 4 165 13 136 -71 l-12 -35 -204 -5 c-279 -7
-317 2 -364 81 -18 31 -20 52 -20 219 0 215 7 238 85 278 43 22 53 22 274 20
l229 -3 13 -55z m744 38 c82 -43 85 -52 85 -276 0 -229 -5 -246 -80 -282 -42
-20 -66 -23 -258 -27 -146 -4 -230 -2 -270 6 -62 14 -113 49 -128 90 -6 14
-10 110 -10 213 1 298 0 297 376 298 230 0 243 -1 285 -22z m533 -26 c9 -27
40 -102 69 -167 l52 -118 46 99 c25 54 59 129 74 167 l29 67 166 0 166 0 0
-300 0 -300 -144 0 c-133 0 -143 1 -135 18 10 20 18 400 9 390 -3 -3 -46 -95
-94 -204 l-88 -199 -94 -3 -95 -3 -89 202 -90 201 -3 -73 c-2 -41 -2 -131 0
-202 l3 -127 -70 0 -70 0 3 280 c2 186 -1 286 -8 300 -11 20 -8 20 167 20
l178 0 18 -48z m-1783 -1381 c0 -6 -28 -30 -62 -55 -59 -41 -68 -44 -136 -48
-44 -2 -72 1 -72 7 0 6 19 29 43 52 34 34 51 42 87 46 90 8 140 7 140 -2z
m-4177 -383 l-3 -253 -115 0 -115 0 -3 253 -2 252 120 0 120 0 -2 -252z m388
230 c17 -34 209 -321 225 -337 12 -13 13 14 8 172 l-5 187 60 0 61 0 -2 -252
-3 -253 -140 -3 -141 -3 -119 180 c-66 99 -122 180 -125 180 -3 1 -4 -80 -3
-179 l3 -180 -60 0 -60 0 0 239 c0 152 -4 242 -10 246 -29 18 15 25 150 25
145 0 150 -1 161 -22z m937 -35 l3 -52 -33 10 c-18 5 -81 9 -141 9 l-108 0 3
-57 3 -58 123 4 122 3 0 -51 0 -51 -125 0 -125 0 0 -105 0 -105 -112 0 -113 0
3 234 c2 159 0 242 -8 256 l-11 20 258 -2 258 -3 3 -52z m606 43 c18 -7 42
-26 54 -41 21 -26 22 -38 22 -200 l0 -173 -28 -30 c-41 -44 -85 -52 -300 -52
-209 0 -237 5 -282 54 -24 27 -25 33 -28 185 -4 191 4 221 70 251 38 17 67 20
251 20 154 0 216 -4 241 -14z m694 6 c12 -4 36 -20 52 -35 29 -27 30 -33 30
-111 0 -89 -15 -119 -64 -132 l-24 -6 33 -56 c19 -31 46 -77 62 -102 15 -25
29 -48 31 -52 2 -5 -54 -8 -125 -8 l-129 0 -49 98 c-50 97 -50 97 -90 100
l-40 3 1 -101 1 -100 -116 0 -116 0 0 255 0 255 260 -1 c143 -1 270 -4 283 -7z
m486 -65 c16 -39 42 -101 58 -137 29 -65 29 -65 43 -40 8 14 35 76 61 138 l47
112 146 0 146 0 -3 -255 -3 -255 -117 0 -117 0 2 167 c3 194 11 198 -91 -34
l-58 -133 -82 0 -81 0 -75 172 c-73 168 -75 170 -78 127 -2 -24 -2 -101 0
-172 l3 -127 -60 0 -60 0 0 237 c0 131 -4 246 -9 256 -8 16 3 17 145 17 l154
0 29 -73z m1032 35 c30 -52 244 -463 244 -468 0 -2 -61 -4 -135 -4 -115 0
-135 2 -135 15 0 9 -11 38 -25 65 l-25 50 -125 0 -125 0 -32 -65 -32 -65 -63
0 c-35 0 -63 2 -63 4 0 6 134 247 202 364 39 66 58 110 55 122 -5 19 0 20 116
20 l122 0 21 -38z m798 7 c15 -75 16 -74 -84 -71 l-91 3 1 -203 2 -203 -114
-3 -113 -3 3 207 3 206 -90 -3 c-50 -2 -91 -3 -91 -2 0 1 5 25 11 53 l11 50
273 0 273 0 6 -31z m291 -224 l0 -255 -115 0 -115 0 3 235 c2 155 -1 241 -8
255 -10 20 -8 20 112 20 l123 0 0 -255z m591 205 c6 -28 9 -52 6 -54 -2 -3
-15 -1 -29 5 -13 5 -68 9 -121 9 -143 0 -142 1 -142 -159 0 -90 4 -133 13
-145 12 -17 27 -18 155 -14 106 2 141 0 138 -8 -3 -7 -10 -31 -17 -54 l-13
-41 -200 3 c-294 4 -296 6 -296 265 0 180 4 192 74 224 35 16 67 19 232 19
l190 0 10 -50z m624 -157 c57 -115 116 -227 132 -251 15 -24 28 -45 28 -48 0
-2 -63 -4 -140 -4 -134 0 -140 1 -140 20 0 11 -10 40 -22 65 l-23 44 -128 1
-127 0 -32 -65 -32 -65 -58 0 c-32 0 -58 4 -58 9 0 5 57 111 126 235 89 162
123 232 119 246 -6 19 -2 20 123 20 l128 0 104 -207z"/>
<path d="M1438 6280 c9 -61 9 -423 0 -483 l-8 -48 138 3 c116 3 136 5 133 18
-3 8 -7 54 -9 102 l-4 86 174 4 c253 5 278 21 278 187 0 82 -2 92 -26 120 -14
17 -42 35 -62 41 -20 5 -168 11 -329 13 l-292 2 7 -45z m444 -57 c14 -12 18
-31 18 -83 0 -38 -5 -71 -12 -78 -8 -8 -46 -12 -105 -12 l-93 0 0 95 0 95 87
0 c66 0 91 -4 105 -17z"/>
<path d="M2328 6315 c-58 -19 -95 -61 -103 -119 -4 -24 -5 -111 -3 -194 3
-168 10 -186 79 -227 32 -19 52 -20 284 -20 230 0 253 2 290 20 22 11 50 35
62 54 22 32 23 44 23 208 0 204 -7 230 -74 266 -38 21 -55 22 -276 24 -184 2
-245 -1 -282 -12z m360 -91 c21 -15 22 -21 22 -184 0 -160 -1 -170 -21 -183
-11 -8 -28 -14 -37 -12 -9 2 -49 4 -88 4 -66 1 -72 3 -82 26 -8 16 -12 83 -12
175 0 188 1 190 118 190 54 0 84 -5 100 -16z"/>
<path d="M3055 6037 l0 -288 70 3 c57 2 69 6 65 18 -9 26 -11 422 -3 417 4 -3
71 -102 148 -221 l140 -216 165 3 165 2 3 283 2 282 -62 0 -63 0 3 -217 c1
-119 0 -214 -4 -210 -4 3 -71 101 -149 217 l-141 210 -170 3 -169 2 0 -288z"/>
<path d="M4697 6316 c-27 -7 -61 -25 -75 -40 -25 -25 -27 -33 -33 -159 -7
-157 2 -267 25 -301 37 -57 58 -61 331 -61 235 0 253 1 297 22 73 34 78 50 78
271 0 174 -2 191 -20 214 -41 53 -85 61 -330 65 -167 2 -238 -1 -273 -11z
m358 -96 c12 -10 15 -43 15 -181 0 -204 3 -199 -126 -194 -46 2 -88 6 -94 10
-12 7 -14 343 -2 361 4 7 18 14 32 17 42 9 159 0 175 -13z"/>
<path d="M3876 6298 c-3 -13 -6 -34 -6 -48 l0 -25 100 3 100 3 0 -225 c0 -141
-4 -227 -10 -231 -28 -17 13 -25 133 -25 l132 0 -3 241 -4 241 106 -4 c85 -2
105 0 101 10 -3 8 -5 29 -5 48 l0 34 -319 0 -319 0 -6 -22z"/>
<path d="M7042 6238 c-8 -8 -12 -62 -12 -178 0 -202 -1 -200 111 -200 117 0
114 -5 114 200 0 141 -3 172 -15 180 -22 14 -184 12 -198 -2z"/>
<path d="M3612 4702 c-9 -7 -12 -46 -10 -163 l3 -154 78 -3 c50 -2 84 1 93 9
19 15 20 289 2 307 -14 14 -146 16 -166 4z"/>
<path d="M4320 4655 c0 -30 -1 -58 -2 -61 -2 -3 26 -8 60 -11 84 -6 112 11
112 67 0 50 -17 60 -104 60 l-66 0 0 -55z"/>
<path d="M5913 4587 l-40 -77 73 0 c53 0 74 4 74 13 -1 6 -16 41 -34 76 l-33
64 -40 -76z"/>
<path d="M8123 4585 l-41 -75 78 0 79 0 -16 38 c-18 43 -52 112 -56 112 -1 0
-21 -34 -44 -75z"/>
</g>
</svg>
