<?xml version="1.0" standalone="no"?>
<!DOCTYPE svg PUBLIC "-//W3C//DTD SVG 20010904//EN"
 "http://www.w3.org/TR/2001/REC-SVG-20010904/DTD/svg10.dtd">
<svg version="1.0" xmlns="http://www.w3.org/2000/svg"
 width="1254.000000pt" height="1254.000000pt" viewBox="0 0 1254.000000 1254.000000"
 preserveAspectRatio="xMidYMid meet">

<g transform="translate(0.000000,1254.000000) scale(0.100000,-0.100000)"
fill="#000000" stroke="none">
<path d="M5520 9885 c-216 -150 -240 -166 -340 -237 -47 -33 -141 -98 -210
-146 -69 -47 -259 -180 -424 -296 -261 -183 -301 -215 -317 -250 -17 -38 -19
-74 -19 -431 0 -371 1 -392 20 -422 23 -38 37 -41 71 -14 13 10 119 83 234
163 116 80 264 182 330 228 120 84 227 157 475 325 336 229 481 327 707 478
133 89 243 165 243 169 0 9 -116 71 -192 102 -75 29 -222 62 -325 72 -104 9
-107 10 -109 23 -1 6 0 7 2 2 4 -7 14 -5 28 4 12 8 27 12 31 8 5 -5 4 0 -3 9
-11 14 -10 22 3 45 12 19 13 23 2 10 -8 -10 -18 -14 -21 -9 -3 5 0 15 8 21 14
12 16 35 4 46 -3 3 -5 -5 -4 -17 1 -17 -4 -22 -16 -20 -21 3 -23 -9 -6 -26 9
-9 9 -12 -1 -12 -9 0 -8 -5 4 -16 9 -9 13 -19 10 -22 -3 -4 -11 0 -16 8 -9 12
-10 12 -5 -3 3 -11 2 -16 -4 -12 -6 3 -8 20 -5 37 5 28 4 30 -10 18 -14 -11
-16 -11 -13 1 2 8 -2 13 -9 12 -6 -1 -10 5 -8 15 1 9 8 16 14 15 6 -2 9 7 7
20 -2 12 -8 21 -13 20 -5 -1 -10 5 -10 12 0 10 4 12 12 5 18 -15 43 19 48 68
3 23 1 40 -3 37 -5 -3 -8 -11 -6 -18 1 -7 1 -9 -1 -4 -3 4 -9 4 -14 1 -6 -3
-5 -12 3 -22 12 -15 11 -16 -5 -3 -12 10 -15 17 -7 25 17 17 11 30 -7 15 -10
-8 -7 0 8 21 13 19 28 38 33 41 4 4 4 9 -1 12 -5 3 -83 -46 -173 -108z m134
-14 c3 -5 -2 -15 -12 -22 -15 -12 -16 -12 -5 2 7 9 10 19 6 22 -3 4 -4 7 0 7
3 0 8 -4 11 -9z m26 -15 c0 -2 -8 -10 -17 -17 -16 -13 -17 -12 -4 4 13 16 21
21 21 13z"/>
<path d="M5701 9869 c0 -9 5 -22 12 -28 10 -8 14 -7 14 4 0 8 -4 12 -8 9 -4
-2 -10 4 -12 13 -4 15 -5 15 -6 2z"/>
<path d="M5679 9823 c-8 -9 -14 -28 -14 -42 0 -17 -5 -25 -14 -23 -12 3 -12 1
-1 -14 13 -15 15 -14 23 11 7 21 12 24 18 14 7 -10 8 -5 5 13 -5 33 2 42 23
26 10 -8 9 -4 -3 10 -23 26 -20 26 -37 5z m12 -6 c-6 -8 -8 -16 -5 -19 3 -3 1
-9 -4 -12 -6 -3 -9 0 -8 6 2 16 15 38 23 38 3 0 0 -6 -6 -13z"/>
<path d="M5610 8626 c-30 -7 -65 -17 -77 -24 -32 -18 -748 -487 -821 -538 -13
-9 -20 -19 -17 -22 4 -4 257 -7 563 -7 521 0 560 -1 604 -19 52 -20 68 -48 45
-74 -49 -57 -787 -1176 -796 -1208 -22 -79 -6 -127 56 -166 l38 -23 620 -2
c341 -1 651 2 689 7 109 15 147 36 355 202 29 24 65 54 80 68 14 14 52 45 83
68 51 39 56 46 45 63 -6 10 -16 19 -22 19 -5 0 -3 5 5 10 12 8 12 10 -5 10
-16 0 -17 2 -5 10 12 8 12 10 -3 16 -10 4 -37 6 -60 6 -23 0 -96 1 -162 1 -66
1 -238 2 -383 2 -184 0 -262 3 -262 11 0 6 63 103 139 215 77 112 158 231 181
264 22 33 104 152 181 265 78 113 184 274 237 359 54 85 111 176 127 202 26
41 68 109 149 239 39 64 83 60 -761 59 -557 -1 -783 -4 -823 -13z m1461 -1683
c13 -16 12 -17 -3 -4 -10 7 -18 15 -18 17 0 8 8 3 21 -13z m-86 -72 c-3 -6
-11 -11 -16 -11 -5 0 -4 6 3 14 14 16 24 13 13 -3z"/>
<path d="M4860 7361 c-456 -293 -604 -394 -628 -431 -23 -34 -23 -34 -20 -375
3 -329 4 -341 24 -370 15 -21 106 -76 295 -181 151 -83 357 -198 459 -256 102
-57 325 -182 495 -277 171 -95 380 -213 465 -261 231 -130 272 -150 338 -162
112 -21 147 -6 555 238 199 120 400 241 447 269 163 100 601 360 638 379 20
10 39 21 42 25 3 4 37 24 75 45 39 21 86 48 105 61 19 12 63 39 97 61 93 58
93 60 93 349 0 135 -2 245 -5 245 -3 0 -17 -12 -31 -27 -14 -17 -22 -21 -18
-10 3 9 2 17 -2 18 -5 0 -17 2 -27 4 -12 2 -17 -1 -13 -10 6 -16 -17 -38 -29
-27 -5 4 -5 2 -1 -5 3 -6 15 -10 26 -8 31 6 24 -10 -20 -45 -22 -17 -40 -27
-40 -22 0 6 6 12 13 15 9 3 9 7 0 19 -10 12 -10 15 2 15 8 0 11 -5 8 -10 -3
-6 -1 -7 5 -3 9 5 9 13 1 28 -9 17 -13 18 -20 7 -5 -8 -9 -9 -10 -4 0 6 -2 20
-5 33 -2 13 0 31 5 40 8 13 10 11 8 -13 -1 -20 2 -29 11 -27 9 1 11 -2 6 -10
-6 -10 -5 -10 8 0 15 12 19 46 5 40 -11 -5 -39 41 -32 52 3 6 -1 7 -10 4 -12
-5 -13 -9 -4 -20 6 -8 10 -14 8 -15 -36 -7 -39 -7 -30 4 6 8 4 19 -6 32 -15
20 -15 20 -10 -1 3 -16 0 -21 -12 -19 -9 1 -16 11 -17 23 -1 15 3 19 15 14 14
-5 14 -3 3 10 -9 11 -10 18 -2 23 10 6 11 5 14 -17 1 -7 7 -12 14 -11 7 2 9
-4 5 -15 -5 -14 -3 -15 7 -5 11 10 11 16 -3 31 -9 10 -14 22 -10 27 5 4 2 5
-4 1 -7 -4 -13 -2 -13 4 0 6 -4 9 -9 6 -5 -3 -14 0 -20 8 -9 11 -9 15 1 19 8
4 7 6 -4 6 -10 1 -18 6 -18 12 0 5 4 8 8 5 5 -3 9 1 9 9 0 11 -4 12 -14 4 -12
-11 -17 -4 -15 21 0 3 -13 5 -29 5 -16 0 -29 -3 -29 -7 0 -8 15 -12 38 -9 6 1
12 -3 12 -9 0 -6 -4 -8 -10 -5 -6 3 -7 -1 -3 -10 5 -13 7 -14 14 -3 7 10 9 10
10 -2 1 -8 1 -18 0 -22 0 -5 3 -8 9 -8 6 0 9 -6 8 -12 -2 -7 3 -12 10 -10 10
2 10 -2 2 -18 -9 -17 -30 -20 -30 -4 0 3 5 2 10 -1 6 -3 10 -1 10 4 0 6 -4 11
-10 11 -5 0 -10 7 -10 16 0 9 -5 12 -12 8 -7 -4 -8 -3 -4 4 4 7 2 12 -3 12 -6
0 -11 6 -11 14 0 8 -4 17 -9 21 -6 3 -8 -3 -6 -15 2 -11 -1 -23 -7 -26 -6 -4
-8 -2 -4 4 3 6 2 13 -3 17 -6 3 -8 12 -5 20 6 15 -12 15 -36 0 -13 -8 -13 -7
-1 8 7 9 18 14 23 10 6 -3 9 0 6 8 -3 8 -10 15 -16 15 -7 1 -15 3 -19 4 -5 1
-11 2 -14 2 -3 -1 -6 11 -5 26 1 21 -4 27 -21 27 -12 0 -25 4 -30 9 -4 5 -3 6
4 2 12 -6 26 9 29 32 3 18 14 29 14 14 0 -6 8 -9 18 -6 14 5 15 4 2 -5 -13 -9
-13 -11 0 -11 13 0 13 -1 0 -10 -13 -9 -13 -10 0 -10 11 0 12 -2 2 -8 -9 -6
-6 -15 12 -37 19 -22 24 -25 22 -10 -2 10 -8 21 -14 23 -7 2 -12 8 -12 14 0 7
5 7 13 -1 8 -6 16 -9 18 -6 3 2 6 -5 6 -17 1 -12 7 -26 14 -32 8 -8 10 -5 5
14 l-7 25 14 -24 14 -23 6 23 c3 13 4 25 2 28 -3 2 -5 -2 -5 -9 0 -9 -6 -8
-20 5 -11 10 -17 22 -13 28 3 6 1 7 -6 3 -8 -5 -10 0 -7 17 3 17 -2 31 -17 44
-11 10 -17 12 -13 6 4 -8 2 -13 -7 -13 -17 0 -57 41 -57 59 0 7 -5 9 -12 5 -7
-4 -8 -3 -4 5 5 8 0 10 -17 7 -14 -2 -28 -1 -32 2 -4 4 -12 7 -18 7 -7 0 -13
10 -15 23 -2 12 -8 20 -13 17 -5 -4 -9 -1 -9 4 0 6 5 11 11 11 6 0 8 7 5 16
-5 14 -4 15 9 4 13 -11 14 -10 9 5 -5 12 -4 16 3 12 6 -4 27 12 47 35 36 40
42 58 13 41 -16 -8 -231 -211 -497 -467 -170 -165 -329 -316 -433 -414 -69
-65 -75 -76 -55 -88 7 -5 8 -2 3 7 -5 8 -5 11 -1 7 4 -3 16 -21 25 -40 11 -19
26 -33 37 -33 17 0 19 -7 16 -52 -1 -29 -9 -88 -16 -130 -14 -77 -123 -728
-132 -790 -3 -21 -11 -33 -20 -33 -30 0 -554 344 -625 411 -17 16 -36 29 -41
29 -13 0 -66 29 -538 292 -212 118 -520 290 -685 382 -165 92 -304 171 -308
175 -11 11 2 37 191 371 156 277 312 560 312 566 0 11 -35 -10 -260 -155z
m3040 -246 c0 -2 -6 -5 -13 -8 -8 -3 -14 1 -14 8 0 7 6 11 14 8 7 -3 13 -6 13
-8z m95 -85 c1 -21 -2 -26 -11 -19 -6 5 -9 21 -6 34 6 32 16 23 17 -15z m45
-174 c0 -2 -8 -10 -17 -17 -16 -13 -17 -12 -4 4 13 16 21 21 21 13z m105 -144
c-3 -3 0 -11 6 -19 17 -20 5 -16 -14 5 -15 16 -15 19 -2 19 8 0 13 -3 10 -5z
m72 -7 c0 -6 -6 -12 -14 -12 -7 0 -13 6 -13 12 0 6 6 12 13 12 8 0 14 -6 14
-12z m-50 -60 c0 -8 -4 -12 -9 -9 -5 3 -6 10 -3 15 9 13 12 11 12 -6z m-1181
-221 c1 -9 0 -13 -4 -10 -3 4 -7 14 -8 22 -1 9 0 13 4 10 3 -4 7 -14 8 -22z
m-42 -90 c3 -8 2 -12 -4 -9 -6 3 -10 10 -10 16 0 14 7 11 14 -7z"/>
<path d="M7849 7207 c7 -7 7 -15 -1 -24 -8 -10 -8 -17 0 -25 8 -8 13 -7 18 5
3 9 14 17 23 16 11 0 12 -2 3 -6 -10 -4 -8 -9 7 -20 12 -8 21 -20 21 -27 0 -7
10 -21 22 -32 14 -12 18 -13 10 -3 -6 9 -8 20 -4 24 4 5 1 5 -5 1 -8 -4 -13
-1 -13 9 0 9 4 13 10 10 6 -4 7 1 3 11 -4 11 -8 13 -11 6 -3 -9 -7 -8 -17 1
-7 7 -11 15 -8 20 2 4 -8 12 -22 17 -14 5 -24 14 -21 18 3 5 -2 9 -10 9 -10 0
-11 -4 -5 -10z m14 -32 c-3 -9 -8 -14 -10 -11 -3 3 -2 9 2 15 9 16 15 13 8 -4z"/>
<path d="M7822 7184 c-1 -13 0 -24 2 -24 7 0 14 40 7 44 -4 3 -8 -6 -9 -20z"/>
<path d="M7935 7043 c3 -3 0 -11 -5 -18 -7 -8 -5 -12 4 -12 14 0 16 22 3 32
-4 3 -5 2 -2 -2z"/>
<path d="M7160 7010 c-13 -8 -13 -10 2 -10 9 0 20 5 23 10 8 13 -5 13 -25 0z"/>
<path d="M7950 6976 c0 -2 8 -10 18 -17 15 -13 16 -12 3 4 -13 16 -21 21 -21
13z"/>
<path d="M8316 6825 c-13 -35 -4 -95 16 -95 5 0 8 20 7 45 -3 52 -13 75 -23
50z"/>
<path d="M4426 4625 c-132 -47 -175 -207 -83 -312 57 -64 146 -88 237 -63 72
20 85 45 74 138 -6 46 -9 52 -30 52 -23 0 -24 -3 -24 -60 0 -70 -15 -84 -90
-84 -89 1 -150 59 -150 144 0 118 121 182 233 123 27 -13 31 -13 46 2 15 15
14 18 -7 35 -48 39 -136 50 -206 25z"/>
<path d="M8014 4631 c-60 -15 -105 -52 -130 -105 -29 -63 -30 -103 -3 -166 36
-85 121 -128 225 -115 64 8 109 36 147 93 56 83 28 208 -61 267 -41 27 -126
39 -178 26z m128 -62 c9 -5 30 -26 45 -46 72 -94 3 -227 -117 -227 -62 0 -95
23 -129 86 -23 41 -24 49 -13 86 16 53 56 99 95 111 34 10 90 5 119 -10z"/>
<path d="M5225 4442 l0 -187 33 -3 32 -3 0 55 0 56 55 0 c54 0 54 0 94 -54 72
-97 127 -87 61 10 -37 55 -39 60 -23 71 68 48 87 105 57 169 -29 62 -62 74
-194 74 l-115 0 0 -188z m180 138 c69 -16 97 -80 57 -131 -14 -17 -34 -24 -82
-30 -35 -4 -69 -5 -77 -2 -18 7 -19 159 0 166 19 8 59 7 102 -3z"/>
<path d="M6107 4516 c-7 -158 8 -212 70 -253 38 -25 158 -25 196 0 58 38 67
68 67 225 l0 142 -29 0 -29 0 -4 -141 c-3 -140 -3 -141 -31 -165 -48 -41 -143
-29 -166 23 -6 13 -11 80 -11 153 l0 130 -29 0 -28 0 -6 -114z"/>
<path d="M7020 4439 l0 -190 33 3 c31 3 32 4 35 54 l3 52 83 4 c116 6 161 39
173 126 7 49 -15 93 -60 121 -30 18 -50 21 -151 21 l-116 0 0 -191z m230 123
c37 -28 40 -89 6 -122 -22 -20 -37 -24 -93 -24 l-68 -1 -6 45 c-9 63 0 118 20
124 31 9 116 -4 141 -22z"/>
<path d="M2140 3790 c-19 -19 -20 -31 -18 -143 l3 -122 427 -5 c234 -3 430 -8
434 -13 4 -4 3 -11 -2 -15 -5 -5 -52 -44 -104 -87 -52 -44 -147 -125 -210
-180 -63 -55 -142 -123 -175 -150 -233 -195 -422 -362 -433 -381 -9 -17 -12
-61 -10 -146 l3 -123 714 -3 c658 -2 716 -1 733 15 17 15 18 30 16 142 l-3
126 -487 3 c-275 1 -488 6 -488 11 0 10 370 332 758 659 75 62 118 107 127
130 22 52 21 287 -1 296 -9 3 -297 6 -640 6 -614 0 -624 0 -644 -20z"/>
<path d="M3698 3801 c-17 -6 2 -31 227 -304 39 -47 133 -163 209 -258 77 -96
155 -191 174 -212 l33 -38 -2 -273 c-1 -151 1 -279 5 -285 10 -16 288 -15 304
1 9 9 12 86 12 285 l0 274 103 127 c57 70 148 183 204 252 55 69 155 190 222
270 66 80 121 148 121 152 0 12 -318 14 -367 3 -20 -5 -191 -203 -358 -416
-33 -42 -67 -81 -76 -87 -17 -11 0 -31 -299 341 -69 86 -136 161 -149 167 -25
11 -333 13 -363 1z"/>
<path d="M5685 3802 c-121 -2 -152 -5 -162 -18 -16 -22 -19 -1330 -2 -1350 9
-11 42 -14 144 -14 74 0 140 3 149 6 14 5 16 57 16 476 0 411 2 469 15 466 8
-2 45 -39 82 -84 38 -44 178 -211 312 -370 133 -159 280 -333 324 -386 45 -53
91 -99 102 -102 11 -3 88 -6 171 -6 118 0 154 3 163 14 9 10 12 190 11 681 0
367 -3 671 -6 676 -7 11 -285 12 -302 0 -11 -7 -13 -92 -12 -452 2 -508 3
-469 -9 -469 -5 0 -61 62 -125 138 -466 556 -671 789 -698 793 -12 2 -90 3
-173 1z"/>
<path d="M7600 3782 c-123 -33 -226 -118 -278 -230 -24 -50 -27 -69 -27 -162
0 -97 2 -110 31 -170 42 -88 101 -145 193 -189 l76 -36 365 -5 c396 -5 398 -6
440 -63 53 -70 29 -164 -51 -205 l-44 -23 -441 3 c-363 2 -444 0 -458 -11 -14
-12 -16 -33 -14 -140 l3 -126 480 0 c515 0 539 2 639 52 70 36 142 112 179
191 26 58 31 81 35 171 4 92 3 103 -12 98 -13 -5 -14 -3 -5 11 9 14 6 30 -16
73 -65 128 -150 195 -294 228 -79 19 -120 21 -397 21 -332 0 -340 1 -378 53
-28 38 -28 117 0 148 45 50 58 52 404 56 417 5 398 4 404 20 4 10 1 11 -12 4
-15 -8 -17 -4 -16 23 1 18 4 38 8 45 4 6 3 18 -3 25 -6 7 -7 17 -3 22 4 4 -1
2 -10 -5 -20 -15 -25 -2 -6 17 9 9 9 12 0 12 -7 0 -12 -6 -12 -12 0 -9 -3 -9
-9 1 -5 8 -8 23 -6 34 3 14 1 16 -9 8 -17 -15 -25 -5 -21 27 2 15 2 21 -1 15
-3 -7 -12 -13 -19 -13 -7 0 -16 -7 -19 -16 -10 -26 -7 -29 8 -8 8 10 18 16 22
11 4 -4 2 -7 -5 -7 -8 0 -10 -8 -6 -22 5 -18 4 -20 -4 -8 -10 13 -11 13 -11 0
0 -9 -3 -11 -8 -5 -8 12 -22 13 -38 3 -6 -4 -11 -1 -11 7 0 7 8 12 19 10 16
-4 23 11 19 38 -1 6 13 11 30 9 3 -1 6 5 6 12 0 9 -19 13 -63 14 -35 0 -69 3
-76 7 -7 4 -4 -1 6 -9 11 -9 15 -16 9 -16 -7 0 -19 7 -27 16 -12 12 -16 12
-16 2 0 -10 -3 -9 -10 2 -8 12 -10 12 -10 -5 0 -17 -2 -17 -10 -5 -15 24 -431
25 -520 2z m507 -8 c-3 -3 -12 -4 -19 -1 -8 3 -5 6 6 6 11 1 17 -2 13 -5z
m145 -13 c-4 -11 -7 -11 -10 -3 -3 9 -8 10 -16 3 -9 -8 -13 -7 -13 2 0 7 10
13 23 13 15 0 20 -4 16 -15z m25 -1 c-1 -11 -5 -20 -9 -20 -10 0 -10 4 -2 24
8 22 13 20 11 -4z m-124 -5 c4 -8 3 -16 -1 -19 -4 -3 -9 4 -9 15 -2 23 3 25
10 4z m42 3 c5 4 5 1 1 -6 -6 -10 -11 -10 -22 -1 -8 6 -14 14 -14 16 0 3 6 0
13 -6 8 -6 18 -7 22 -3z m161 -50 c5 4 6 3 2 -2 -4 -5 2 -26 13 -47 20 -40 33
-53 22 -21 -5 13 -3 14 7 5 17 -16 4 -33 -23 -29 -13 2 -24 13 -28 27 -3 13
-10 23 -15 22 -5 -1 -9 11 -9 27 0 19 3 25 11 19 6 -5 15 -5 20 -1z m-19 -80
c-3 -8 -6 -5 -6 6 -1 11 2 17 5 13 3 -3 4 -12 1 -19z m33 -33 c21 1 26 -3 28
-22 1 -14 -2 -21 -8 -18 -6 3 -10 0 -10 -7 0 -9 -3 -10 -8 -2 -4 6 -15 10 -24
9 -9 -2 -23 3 -29 12 -7 8 -8 13 -3 12 23 -4 26 3 8 24 -19 22 -19 22 1 6 11
-9 31 -15 45 -14z"/>
<path d="M8340 3681 c0 -6 4 -13 10 -16 6 -3 7 1 4 9 -7 18 -14 21 -14 7z"/>
<path d="M8361 3634 c0 -11 3 -14 6 -6 3 7 2 16 -1 19 -3 4 -6 -2 -5 -13z"/>
<path d="M8340 3576 c-7 -10 -4 -13 15 -12 14 1 26 6 28 10 3 14 -31 15 -43 2z"/>
<path d="M8424 3606 c-3 -8 -4 -23 -2 -33 3 -11 6 -6 9 15 6 34 2 42 -7 18z"/>
<path d="M8443 3569 c0 -33 2 -35 31 -33 17 1 33 2 36 4 3 1 9 2 14 1 5 -1 4
4 -2 12 -7 8 -10 17 -7 20 3 4 2 5 -2 2 -3 -3 -13 1 -22 7 -9 7 -7 2 4 -11 16
-20 17 -23 4 -18 -9 3 -22 0 -29 -6 -10 -10 -12 -8 -7 6 4 10 3 15 -2 12 -5
-3 -11 5 -14 17 -2 13 -4 8 -4 -13z"/>
<path d="M9336 3294 c-9 -8 -16 -23 -16 -31 0 -9 2 -14 4 -12 2 2 4 7 3 10 -1
4 7 16 17 28 22 24 15 29 -8 5z"/>
<path d="M9257 3151 c-4 -17 -3 -21 5 -13 5 5 8 16 6 23 -3 8 -7 3 -11 -10z"/>
<path d="M9178 3013 c-14 -21 -65 -108 -113 -193 -48 -85 -117 -206 -153 -269
-45 -79 -61 -115 -53 -120 12 -8 304 -3 329 5 7 2 24 27 38 56 14 29 40 78 58
109 39 65 59 120 49 128 -5 3 -10 15 -11 26 -5 29 -12 32 -13 7 -2 -33 -3 -35
-22 -62 -9 -13 -17 -20 -17 -14 0 5 6 16 12 22 14 14 20 94 6 86 -4 -3 -6 -9
-3 -14 3 -5 0 -20 -7 -32 -7 -13 -11 -27 -10 -31 1 -5 -2 -6 -8 -2 -7 4 -5 14
5 28 18 25 20 41 3 31 -7 -5 -8 -3 -3 6 6 10 4 12 -9 7 -11 -4 -15 -3 -11 4 4
6 13 8 20 5 20 -7 27 26 15 60 -11 28 -12 28 -26 10 -9 -14 -11 -23 -3 -32 6
-8 6 -14 0 -18 -12 -8 -18 2 -17 29 1 11 -3 23 -9 27 -6 4 -1 8 9 8 29 0 10
13 -23 15 -21 2 -28 -1 -24 -11 3 -8 10 -11 16 -7 6 3 7 1 3 -5 -10 -17 -26
-15 -26 3 0 8 -4 15 -9 15 -5 0 -12 7 -15 16 -7 18 23 76 36 68 4 -3 7 5 7 18
-1 13 2 31 6 41 12 29 -1 19 -27 -20z m98 -197 c-2 -6 -5 -3 -5 7 -1 9 -5 17
-11 17 -5 0 -7 7 -3 17 5 14 8 12 15 -7 5 -13 7 -28 4 -34z m-76 28 c0 -8 -19
-13 -24 -6 -3 5 1 9 9 9 8 0 15 -2 15 -3z m37 -109 c0 -8 -4 -12 -9 -9 -5 3
-6 10 -3 15 9 13 12 11 12 -6z"/>
<path d="M9211 2942 c-1 -7 -5 -11 -10 -7 -5 3 -12 1 -16 -5 -4 -6 -11 -8 -16
-5 -5 3 -6 -1 -2 -10 5 -13 7 -14 14 -3 5 7 9 9 9 4 0 -5 8 -2 17 5 15 12 16
12 10 -3 -9 -25 0 -22 14 3 6 13 7 19 1 15 -6 -3 -13 0 -15 6 -4 10 -6 10 -6
0z"/>
<path d="M9275 2910 c-10 -17 5 -33 19 -21 7 6 17 7 21 3 5 -4 5 -1 1 6 -6 11
-11 11 -24 0 -13 -11 -15 -10 -9 5 7 18 2 23 -8 7z"/>
<path d="M9360 2821 c0 -6 5 -11 11 -11 5 0 8 -4 4 -9 -3 -5 -1 -12 5 -16 16
-10 12 21 -5 35 -10 9 -15 9 -15 1z"/>
<path d="M9335 2770 c4 -6 11 -8 16 -5 14 9 11 15 -7 15 -8 0 -12 -5 -9 -10z"/>
</g>
</svg>
